<?xml version="1.0" encoding="UTF-8"?>
<svg width="30px" height="30px" viewBox="0 0 30 30" version="1.1" xmlns="http://www.w3.org/2000/svg" xmlns:xlink="http://www.w3.org/1999/xlink">
    <!-- Generator: Sketch 56 (81588) - https://sketch.com -->
    <title>block-info</title>
    <desc>Created with Sketch.</desc>
    <g id="Page-1" stroke="none" stroke-width="1" fill="none" fill-rule="evenodd">
        <path d="M2.5,0 C1.125,0 0,1.125 0,2.5 L0,27.5 C0,28.875 1.125,30 2.5,30 L27.5,30 C28.875,30 30,28.875 30,27.5 L30,2.5 C30,1.125 28.875,0 27.5,0 L2.5,0 Z M2.5,1 L27.5,1 C28.3339845,1 29,1.6660155 29,2.5 L29,27.5 C29,28.3339845 28.3339845,29 27.5,29 L2.5,29 C1.6660155,29 1,28.3339845 1,27.5 L1,2.5 C1,1.6660155 1.6660155,1 2.5,1 Z M4,3.5 C3.7246095,3.5 3.5,3.7246095 3.5,4 C3.5,4.2753905 3.7246095,4.5 4,4.5 C4.2753905,4.5 4.5,4.2753905 4.5,4 C4.5,3.7246095 4.2753905,3.5 4,3.5 Z M6,3.5 C5.7246095,3.5 5.5,3.7246095 5.5,4 C5.5,4.2753905 5.7246095,4.5 6,4.5 C6.2753905,4.5 6.5,4.2753905 6.5,4 C6.5,3.7246095 6.2753905,3.5 6,3.5 Z M8,3.5 C7.7246095,3.5 7.5,3.7246095 7.5,4 C7.5,4.2753905 7.7246095,4.5 8,4.5 C8.2753905,4.5 8.5,4.2753905 8.5,4 C8.5,3.7246095 8.2753905,3.5 8,3.5 Z M10,3.5 C9.7246095,3.5 9.5,3.7246095 9.5,4 C9.5,4.2753905 9.7246095,4.5 10,4.5 C10.2753905,4.5 10.5,4.2753905 10.5,4 C10.5,3.7246095 10.2753905,3.5 10,3.5 Z M12,3.5 C11.7246095,3.5 11.5,3.7246095 11.5,4 C11.5,4.2753905 11.7246095,4.5 12,4.5 C12.2753905,4.5 12.5,4.2753905 12.5,4 C12.5,3.7246095 12.2753905,3.5 12,3.5 Z M14,3.5 C13.7246095,3.5 13.5,3.7246095 13.5,4 C13.5,4.2753905 13.7246095,4.5 14,4.5 C14.2753905,4.5 14.5,4.2753905 14.5,4 C14.5,3.7246095 14.2753905,3.5 14,3.5 Z M16,3.5 C15.7246095,3.5 15.5,3.7246095 15.5,4 C15.5,4.2753905 15.7246095,4.5 16,4.5 C16.2753905,4.5 16.5,4.2753905 16.5,4 C16.5,3.7246095 16.2753905,3.5 16,3.5 Z M18,3.5 C17.7246095,3.5 17.5,3.7246095 17.5,4 C17.5,4.2753905 17.7246095,4.5 18,4.5 C18.2753905,4.5 18.5,4.2753905 18.5,4 C18.5,3.7246095 18.2753905,3.5 18,3.5 Z M20,3.5 C19.7246095,3.5 19.5,3.7246095 19.5,4 C19.5,4.2753905 19.7246095,4.5 20,4.5 C20.2753905,4.5 20.5,4.2753905 20.5,4 C20.5,3.7246095 20.2753905,3.5 20,3.5 Z M22,3.5 C21.7246095,3.5 21.5,3.7246095 21.5,4 C21.5,4.2753905 21.7246095,4.5 22,4.5 C22.2753905,4.5 22.5,4.2753905 22.5,4 C22.5,3.7246095 22.2753905,3.5 22,3.5 Z M24,3.5 C23.7246095,3.5 23.5,3.7246095 23.5,4 C23.5,4.2753905 23.7246095,4.5 24,4.5 C24.2753905,4.5 24.5,4.2753905 24.5,4 C24.5,3.7246095 24.2753905,3.5 24,3.5 Z M26,3.5 C25.7246095,3.5 25.5,3.7246095 25.5,4 C25.5,4.2753905 25.7246095,4.5 26,4.5 C26.2753905,4.5 26.5,4.2753905 26.5,4 C26.5,3.7246095 26.2753905,3.5 26,3.5 Z M4,5.5 C3.7246095,5.5 3.5,5.7246095 3.5,6 C3.5,6.2753905 3.7246095,6.5 4,6.5 C4.2753905,6.5 4.5,6.2753905 4.5,6 C4.5,5.7246095 4.2753905,5.5 4,5.5 Z M26,5.5 C25.7246095,5.5 25.5,5.7246095 25.5,6 C25.5,6.2753905 25.7246095,6.5 26,6.5 C26.2753905,6.5 26.5,6.2753905 26.5,6 C26.5,5.7246095 26.2753905,5.5 26,5.5 Z M4,7.5 C3.7246095,7.5 3.5,7.7246095 3.5,8 C3.5,8.2753905 3.7246095,8.5 4,8.5 C4.2753905,8.5 4.5,8.2753905 4.5,8 C4.5,7.7246095 4.2753905,7.5 4,7.5 Z M15,7.5 C13.9003905,7.5 13,8.4003905 13,9.5 C13,10.5996095 13.9003905,11.5 15,11.5 C16.0996095,11.5 17,10.5996095 17,9.5 C17,8.4003905 16.0996095,7.5 15,7.5 Z M26,7.5 C25.7246095,7.5 25.5,7.7246095 25.5,8 C25.5,8.2753905 25.7246095,8.5 26,8.5 C26.2753905,8.5 26.5,8.2753905 26.5,8 C26.5,7.7246095 26.2753905,7.5 26,7.5 Z M15,8.5 C15.558594,8.5 16,8.9414065 16,9.5 C16,10.058594 15.558594,10.5 15,10.5 C14.4414065,10.5 14,10.058594 14,9.5 C14,8.9414065 14.4414065,8.5 15,8.5 Z M4,9.5 C3.7246095,9.5 3.5,9.7246095 3.5,10 C3.5,10.2753905 3.7246095,10.5 4,10.5 C4.2753905,10.5 4.5,10.2753905 4.5,10 C4.5,9.7246095 4.2753905,9.5 4,9.5 Z M26,9.5 C25.7246095,9.5 25.5,9.7246095 25.5,10 C25.5,10.2753905 25.7246095,10.5 26,10.5 C26.2753905,10.5 26.5,10.2753905 26.5,10 C26.5,9.7246095 26.2753905,9.5 26,9.5 Z M4,11.5 C3.7246095,11.5 3.5,11.7246095 3.5,12 C3.5,12.2753905 3.7246095,12.5 4,12.5 C4.2753905,12.5 4.5,12.2753905 4.5,12 C4.5,11.7246095 4.2753905,11.5 4,11.5 Z M26,11.5 C25.7246095,11.5 25.5,11.7246095 25.5,12 C25.5,12.2753905 25.7246095,12.5 26,12.5 C26.2753905,12.5 26.5,12.2753905 26.5,12 C26.5,11.7246095 26.2753905,11.5 26,11.5 Z M13.5,13 L13.5,22 L16.5,22 L16.5,13 L13.5,13 Z M4,13.5 C3.7246095,13.5 3.5,13.7246095 3.5,14 C3.5,14.2753905 3.7246095,14.5 4,14.5 C4.2753905,14.5 4.5,14.2753905 4.5,14 C4.5,13.7246095 4.2753905,13.5 4,13.5 Z M26,13.5 C25.7246095,13.5 25.5,13.7246095 25.5,14 C25.5,14.2753905 25.7246095,14.5 26,14.5 C26.2753905,14.5 26.5,14.2753905 26.5,14 C26.5,13.7246095 26.2753905,13.5 26,13.5 Z M14.5,14 L15.5,14 L15.5,21 L14.5,21 L14.5,14 Z M4,15.5 C3.7246095,15.5 3.5,15.7246095 3.5,16 C3.5,16.2753905 3.7246095,16.5 4,16.5 C4.2753905,16.5 4.5,16.2753905 4.5,16 C4.5,15.7246095 4.2753905,15.5 4,15.5 Z M26,15.5 C25.7246095,15.5 25.5,15.7246095 25.5,16 C25.5,16.2753905 25.7246095,16.5 26,16.5 C26.2753905,16.5 26.5,16.2753905 26.5,16 C26.5,15.7246095 26.2753905,15.5 26,15.5 Z M4,17.5 C3.7246095,17.5 3.5,17.7246095 3.5,18 C3.5,18.2753905 3.7246095,18.5 4,18.5 C4.2753905,18.5 4.5,18.2753905 4.5,18 C4.5,17.7246095 4.2753905,17.5 4,17.5 Z M26,17.5 C25.7246095,17.5 25.5,17.7246095 25.5,18 C25.5,18.2753905 25.7246095,18.5 26,18.5 C26.2753905,18.5 26.5,18.2753905 26.5,18 C26.5,17.7246095 26.2753905,17.5 26,17.5 Z M4,19.5 C3.7246095,19.5 3.5,19.7246095 3.5,20 C3.5,20.2753905 3.7246095,20.5 4,20.5 C4.2753905,20.5 4.5,20.2753905 4.5,20 C4.5,19.7246095 4.2753905,19.5 4,19.5 Z M26,19.5 C25.7246095,19.5 25.5,19.7246095 25.5,20 C25.5,20.2753905 25.7246095,20.5 26,20.5 C26.2753905,20.5 26.5,20.2753905 26.5,20 C26.5,19.7246095 26.2753905,19.5 26,19.5 Z M4,21.5 C3.7246095,21.5 3.5,21.7246095 3.5,22 C3.5,22.2753905 3.7246095,22.5 4,22.5 C4.2753905,22.5 4.5,22.2753905 4.5,22 C4.5,21.7246095 4.2753905,21.5 4,21.5 Z M26,21.5 C25.7246095,21.5 25.5,21.7246095 25.5,22 C25.5,22.2753905 25.7246095,22.5 26,22.5 C26.2753905,22.5 26.5,22.2753905 26.5,22 C26.5,21.7246095 26.2753905,21.5 26,21.5 Z M4,23.5 C3.7246095,23.5 3.5,23.7246095 3.5,24 C3.5,24.2753905 3.7246095,24.5 4,24.5 C4.2753905,24.5 4.5,24.2753905 4.5,24 C4.5,23.7246095 4.2753905,23.5 4,23.5 Z M26,23.5 C25.7246095,23.5 25.5,23.7246095 25.5,24 C25.5,24.2753905 25.7246095,24.5 26,24.5 C26.2753905,24.5 26.5,24.2753905 26.5,24 C26.5,23.7246095 26.2753905,23.5 26,23.5 Z M4,25.5 C3.7246095,25.5 3.5,25.7246095 3.5,26 C3.5,26.2753905 3.7246095,26.5 4,26.5 C4.2753905,26.5 4.5,26.2753905 4.5,26 C4.5,25.7246095 4.2753905,25.5 4,25.5 Z M6,25.5 C5.7246095,25.5 5.5,25.7246095 5.5,26 C5.5,26.2753905 5.7246095,26.5 6,26.5 C6.2753905,26.5 6.5,26.2753905 6.5,26 C6.5,25.7246095 6.2753905,25.5 6,25.5 Z M8,25.5 C7.7246095,25.5 7.5,25.7246095 7.5,26 C7.5,26.2753905 7.7246095,26.5 8,26.5 C8.2753905,26.5 8.5,26.2753905 8.5,26 C8.5,25.7246095 8.2753905,25.5 8,25.5 Z M10,25.5 C9.7246095,25.5 9.5,25.7246095 9.5,26 C9.5,26.2753905 9.7246095,26.5 10,26.5 C10.2753905,26.5 10.5,26.2753905 10.5,26 C10.5,25.7246095 10.2753905,25.5 10,25.5 Z M12,25.5 C11.7246095,25.5 11.5,25.7246095 11.5,26 C11.5,26.2753905 11.7246095,26.5 12,26.5 C12.2753905,26.5 12.5,26.2753905 12.5,26 C12.5,25.7246095 12.2753905,25.5 12,25.5 Z M14,25.5 C13.7246095,25.5 13.5,25.7246095 13.5,26 C13.5,26.2753905 13.7246095,26.5 14,26.5 C14.2753905,26.5 14.5,26.2753905 14.5,26 C14.5,25.7246095 14.2753905,25.5 14,25.5 Z M16,25.5 C15.7246095,25.5 15.5,25.7246095 15.5,26 C15.5,26.2753905 15.7246095,26.5 16,26.5 C16.2753905,26.5 16.5,26.2753905 16.5,26 C16.5,25.7246095 16.2753905,25.5 16,25.5 Z M18,25.5 C17.7246095,25.5 17.5,25.7246095 17.5,26 C17.5,26.2753905 17.7246095,26.5 18,26.5 C18.2753905,26.5 18.5,26.2753905 18.5,26 C18.5,25.7246095 18.2753905,25.5 18,25.5 Z M20,25.5 C19.7246095,25.5 19.5,25.7246095 19.5,26 C19.5,26.2753905 19.7246095,26.5 20,26.5 C20.2753905,26.5 20.5,26.2753905 20.5,26 C20.5,25.7246095 20.2753905,25.5 20,25.5 Z M22,25.5 C21.7246095,25.5 21.5,25.7246095 21.5,26 C21.5,26.2753905 21.7246095,26.5 22,26.5 C22.2753905,26.5 22.5,26.2753905 22.5,26 C22.5,25.7246095 22.2753905,25.5 22,25.5 Z M24,25.5 C23.7246095,25.5 23.5,25.7246095 23.5,26 C23.5,26.2753905 23.7246095,26.5 24,26.5 C24.2753905,26.5 24.5,26.2753905 24.5,26 C24.5,25.7246095 24.2753905,25.5 24,25.5 Z M26,25.5 C25.7246095,25.5 25.5,25.7246095 25.5,26 C25.5,26.2753905 25.7246095,26.5 26,26.5 C26.2753905,26.5 26.5,26.2753905 26.5,26 C26.5,25.7246095 26.2753905,25.5 26,25.5 Z" id="block-info" fill="#555D66" fill-rule="nonzero"></path>
    </g>
</svg>