<?xml version="1.0" encoding="UTF-8"?>
<svg width="30px" height="30px" viewBox="0 0 30 30" version="1.1" xmlns="http://www.w3.org/2000/svg" xmlns:xlink="http://www.w3.org/1999/xlink">
    <!-- Generator: Sketch 56 (81588) - https://sketch.com -->
    <title>block-button</title>
    <desc>Created with Sketch.</desc>
    <g id="Page-1" stroke="none" stroke-width="1" fill="none" fill-rule="evenodd">
        <path d="M1.81818182,5.90909091 C0.818536818,5.90909091 0,6.72762773 0,7.72727273 L0,20.4545455 C0,21.4541905 0.818536818,22.2727273 1.81818182,22.2727273 C1.81818182,22.5230823 2.02237227,22.7272727 2.27272727,22.7272727 C2.52308227,22.7272727 2.72727273,22.5230823 2.72727273,22.2727273 L3.63636364,22.2727273 C3.63636364,22.5230823 3.84055409,22.7272727 4.09090909,22.7272727 C4.34126409,22.7272727 4.54545455,22.5230823 4.54545455,22.2727273 L5.45454545,22.2727273 C5.45454545,22.5230823 5.65873591,22.7272727 5.90909091,22.7272727 C6.15944591,22.7272727 6.36363636,22.5230823 6.36363636,22.2727273 L7.27272727,22.2727273 C7.27272727,22.5230823 7.47691773,22.7272727 7.72727273,22.7272727 C7.97762773,22.7272727 8.18181818,22.5230823 8.18181818,22.2727273 L9.09090909,22.2727273 C9.09090909,22.5230823 9.29509955,22.7272727 9.54545455,22.7272727 C9.79580955,22.7272727 10,22.5230823 10,22.2727273 L10.9090909,22.2727273 C10.9090909,22.5230823 11.1132814,22.7272727 11.3636364,22.7272727 C11.6139914,22.7272727 11.8181818,22.5230823 11.8181818,22.2727273 L12.7272727,22.2727273 C12.7272727,22.5230823 12.9314632,22.7272727 13.1818182,22.7272727 C13.4321732,22.7272727 13.6363636,22.5230823 13.6363636,22.2727273 L14.5454545,22.2727273 C14.5454545,22.5230823 14.749645,22.7272727 15,22.7272727 C15.250355,22.7272727 15.4545455,22.5230823 15.4545455,22.2727273 L16.3636364,22.2727273 C16.3636364,22.5230823 16.5678268,22.7272727 16.8181818,22.7272727 C17.0685368,22.7272727 17.2727273,22.5230823 17.2727273,22.2727273 L18.1818182,22.2727273 C18.1818182,22.5230823 18.3860086,22.7272727 18.6363636,22.7272727 C18.8867186,22.7272727 19.0909091,22.5230823 19.0909091,22.2727273 L20,22.2727273 C20,22.5230823 20.2041905,22.7272727 20.4545455,22.7272727 C20.7049005,22.7272727 20.9090909,22.5230823 20.9090909,22.2727273 L21.8181818,22.2727273 C21.8181818,22.5230823 22.0223723,22.7272727 22.2727273,22.7272727 C22.5230823,22.7272727 22.7272727,22.5230823 22.7272727,22.2727273 L23.6363636,22.2727273 C23.6363636,22.5230823 23.8405541,22.7272727 24.0909091,22.7272727 C24.3412641,22.7272727 24.5454545,22.5230823 24.5454545,22.2727273 L25.4545455,22.2727273 C25.4545455,22.5230823 25.6587359,22.7272727 25.9090909,22.7272727 C26.1594459,22.7272727 26.3636364,22.5230823 26.3636364,22.2727273 L27.2727273,22.2727273 C27.2727273,22.5230823 27.4769177,22.7272727 27.7272727,22.7272727 C27.9776277,22.7272727 28.1818182,22.5230823 28.1818182,22.2727273 C29.1814632,22.2727273 30,21.4541905 30,20.4545455 L30,7.72727273 C30,6.72762773 29.1814632,5.90909091 28.1818182,5.90909091 L1.81818182,5.90909091 Z M1.81818182,6.81818182 L28.1818182,6.81818182 C28.6896309,6.81818182 29.0909091,7.21946045 29.0909091,7.72727273 L29.0909091,20.4545455 C29.0909091,20.9623582 28.6896309,21.3636364 28.1818182,21.3636364 L1.81818182,21.3636364 C1.31036955,21.3636364 0.909090909,20.9623582 0.909090909,20.4545455 L0.909090909,7.72727273 C0.909090909,7.21946045 1.31036955,6.81818182 1.81818182,6.81818182 Z M5,8.18181818 C4.749645,8.18181818 4.54545455,8.38600864 4.54545455,8.63636364 C4.54545455,8.88671864 4.749645,9.09090909 5,9.09090909 C5.250355,9.09090909 5.45454545,8.88671864 5.45454545,8.63636364 C5.45454545,8.38600864 5.250355,8.18181818 5,8.18181818 Z M6.81818182,8.18181818 C6.56782682,8.18181818 6.36363636,8.38600864 6.36363636,8.63636364 C6.36363636,8.88671864 6.56782682,9.09090909 6.81818182,9.09090909 C7.06853682,9.09090909 7.27272727,8.88671864 7.27272727,8.63636364 C7.27272727,8.38600864 7.06853682,8.18181818 6.81818182,8.18181818 Z M8.63636364,8.18181818 C8.38600864,8.18181818 8.18181818,8.38600864 8.18181818,8.63636364 C8.18181818,8.88671864 8.38600864,9.09090909 8.63636364,9.09090909 C8.88671864,9.09090909 9.09090909,8.88671864 9.09090909,8.63636364 C9.09090909,8.38600864 8.88671864,8.18181818 8.63636364,8.18181818 Z M10.4545455,8.18181818 C10.2041905,8.18181818 10,8.38600864 10,8.63636364 C10,8.88671864 10.2041905,9.09090909 10.4545455,9.09090909 C10.7049005,9.09090909 10.9090909,8.88671864 10.9090909,8.63636364 C10.9090909,8.38600864 10.7049005,8.18181818 10.4545455,8.18181818 Z M12.2727273,8.18181818 C12.0223723,8.18181818 11.8181818,8.38600864 11.8181818,8.63636364 C11.8181818,8.88671864 12.0223723,9.09090909 12.2727273,9.09090909 C12.5230823,9.09090909 12.7272727,8.88671864 12.7272727,8.63636364 C12.7272727,8.38600864 12.5230823,8.18181818 12.2727273,8.18181818 Z M14.0909091,8.18181818 C13.8405541,8.18181818 13.6363636,8.38600864 13.6363636,8.63636364 C13.6363636,8.88671864 13.8405541,9.09090909 14.0909091,9.09090909 C14.3412641,9.09090909 14.5454545,8.88671864 14.5454545,8.63636364 C14.5454545,8.38600864 14.3412641,8.18181818 14.0909091,8.18181818 Z M15.9090909,8.18181818 C15.6587359,8.18181818 15.4545455,8.38600864 15.4545455,8.63636364 C15.4545455,8.88671864 15.6587359,9.09090909 15.9090909,9.09090909 C16.1594459,9.09090909 16.3636364,8.88671864 16.3636364,8.63636364 C16.3636364,8.38600864 16.1594459,8.18181818 15.9090909,8.18181818 Z M17.7272727,8.18181818 C17.4769177,8.18181818 17.2727273,8.38600864 17.2727273,8.63636364 C17.2727273,8.88671864 17.4769177,9.09090909 17.7272727,9.09090909 C17.9776277,9.09090909 18.1818182,8.88671864 18.1818182,8.63636364 C18.1818182,8.38600864 17.9776277,8.18181818 17.7272727,8.18181818 Z M19.5454545,8.18181818 C19.2950995,8.18181818 19.0909091,8.38600864 19.0909091,8.63636364 C19.0909091,8.88671864 19.2950995,9.09090909 19.5454545,9.09090909 C19.7958095,9.09090909 20,8.88671864 20,8.63636364 C20,8.38600864 19.7958095,8.18181818 19.5454545,8.18181818 Z M21.3636364,8.18181818 C21.1132814,8.18181818 20.9090909,8.38600864 20.9090909,8.63636364 C20.9090909,8.88671864 21.1132814,9.09090909 21.3636364,9.09090909 C21.6139914,9.09090909 21.8181818,8.88671864 21.8181818,8.63636364 C21.8181818,8.38600864 21.6139914,8.18181818 21.3636364,8.18181818 Z M23.1818182,8.18181818 C22.9314632,8.18181818 22.7272727,8.38600864 22.7272727,8.63636364 C22.7272727,8.88671864 22.9314632,9.09090909 23.1818182,9.09090909 C23.4321732,9.09090909 23.6363636,8.88671864 23.6363636,8.63636364 C23.6363636,8.38600864 23.4321732,8.18181818 23.1818182,8.18181818 Z M25,8.18181818 C24.749645,8.18181818 24.5454545,8.38600864 24.5454545,8.63636364 C24.5454545,8.88671864 24.749645,9.09090909 25,9.09090909 C25.250355,9.09090909 25.4545455,8.88671864 25.4545455,8.63636364 C25.4545455,8.38600864 25.250355,8.18181818 25,8.18181818 Z M5,19.0909091 C4.749645,19.0909091 4.54545455,19.2950995 4.54545455,19.5454545 C4.54545455,19.7958095 4.749645,20 5,20 C5.250355,20 5.45454545,19.7958095 5.45454545,19.5454545 C5.45454545,19.2950995 5.250355,19.0909091 5,19.0909091 Z M6.81818182,19.0909091 C6.56782682,19.0909091 6.36363636,19.2950995 6.36363636,19.5454545 C6.36363636,19.7958095 6.56782682,20 6.81818182,20 C7.06853682,20 7.27272727,19.7958095 7.27272727,19.5454545 C7.27272727,19.2950995 7.06853682,19.0909091 6.81818182,19.0909091 Z M8.63636364,19.0909091 C8.38600864,19.0909091 8.18181818,19.2950995 8.18181818,19.5454545 C8.18181818,19.7958095 8.38600864,20 8.63636364,20 C8.88671864,20 9.09090909,19.7958095 9.09090909,19.5454545 C9.09090909,19.2950995 8.88671864,19.0909091 8.63636364,19.0909091 Z M10.4545455,19.0909091 C10.2041905,19.0909091 10,19.2950995 10,19.5454545 C10,19.7958095 10.2041905,20 10.4545455,20 C10.7049005,20 10.9090909,19.7958095 10.9090909,19.5454545 C10.9090909,19.2950995 10.7049005,19.0909091 10.4545455,19.0909091 Z M12.2727273,19.0909091 C12.0223723,19.0909091 11.8181818,19.2950995 11.8181818,19.5454545 C11.8181818,19.7958095 12.0223723,20 12.2727273,20 C12.5230823,20 12.7272727,19.7958095 12.7272727,19.5454545 C12.7272727,19.2950995 12.5230823,19.0909091 12.2727273,19.0909091 Z M14.0909091,19.0909091 C13.8405541,19.0909091 13.6363636,19.2950995 13.6363636,19.5454545 C13.6363636,19.7958095 13.8405541,20 14.0909091,20 C14.3412641,20 14.5454545,19.7958095 14.5454545,19.5454545 C14.5454545,19.2950995 14.3412641,19.0909091 14.0909091,19.0909091 Z M15.9090909,19.0909091 C15.6587359,19.0909091 15.4545455,19.2950995 15.4545455,19.5454545 C15.4545455,19.7958095 15.6587359,20 15.9090909,20 C16.1594459,20 16.3636364,19.7958095 16.3636364,19.5454545 C16.3636364,19.2950995 16.1594459,19.0909091 15.9090909,19.0909091 Z M17.7272727,19.0909091 C17.4769177,19.0909091 17.2727273,19.2950995 17.2727273,19.5454545 C17.2727273,19.7958095 17.4769177,20 17.7272727,20 C17.9776277,20 18.1818182,19.7958095 18.1818182,19.5454545 C18.1818182,19.2950995 17.9776277,19.0909091 17.7272727,19.0909091 Z M19.5454545,19.0909091 C19.2950995,19.0909091 19.0909091,19.2950995 19.0909091,19.5454545 C19.0909091,19.7958095 19.2950995,20 19.5454545,20 C19.7958095,20 20,19.7958095 20,19.5454545 C20,19.2950995 19.7958095,19.0909091 19.5454545,19.0909091 Z M21.3636364,19.0909091 C21.1132814,19.0909091 20.9090909,19.2950995 20.9090909,19.5454545 C20.9090909,19.7958095 21.1132814,20 21.3636364,20 C21.6139914,20 21.8181818,19.7958095 21.8181818,19.5454545 C21.8181818,19.2950995 21.6139914,19.0909091 21.3636364,19.0909091 Z M23.1818182,19.0909091 C22.9314632,19.0909091 22.7272727,19.2950995 22.7272727,19.5454545 C22.7272727,19.7958095 22.9314632,20 23.1818182,20 C23.4321732,20 23.6363636,19.7958095 23.6363636,19.5454545 C23.6363636,19.2950995 23.4321732,19.0909091 23.1818182,19.0909091 Z M25,19.0909091 C24.749645,19.0909091 24.5454545,19.2950995 24.5454545,19.5454545 C24.5454545,19.7958095 24.749645,20 25,20 C25.250355,20 25.4545455,19.7958095 25.4545455,19.5454545 C25.4545455,19.2950995 25.250355,19.0909091 25,19.0909091 Z M3.18181818,23.1818182 C2.93146318,23.1818182 2.72727273,23.3860086 2.72727273,23.6363636 C2.72727273,23.8867186 2.93146318,24.0909091 3.18181818,24.0909091 C3.43217318,24.0909091 3.63636364,23.8867186 3.63636364,23.6363636 C3.63636364,23.3860086 3.43217318,23.1818182 3.18181818,23.1818182 Z M5,23.1818182 C4.749645,23.1818182 4.54545455,23.3860086 4.54545455,23.6363636 C4.54545455,23.8867186 4.749645,24.0909091 5,24.0909091 C5.250355,24.0909091 5.45454545,23.8867186 5.45454545,23.6363636 C5.45454545,23.3860086 5.250355,23.1818182 5,23.1818182 Z M6.81818182,23.1818182 C6.56782682,23.1818182 6.36363636,23.3860086 6.36363636,23.6363636 C6.36363636,23.8867186 6.56782682,24.0909091 6.81818182,24.0909091 C7.06853682,24.0909091 7.27272727,23.8867186 7.27272727,23.6363636 C7.27272727,23.3860086 7.06853682,23.1818182 6.81818182,23.1818182 Z M8.63636364,23.1818182 C8.38600864,23.1818182 8.18181818,23.3860086 8.18181818,23.6363636 C8.18181818,23.8867186 8.38600864,24.0909091 8.63636364,24.0909091 C8.88671864,24.0909091 9.09090909,23.8867186 9.09090909,23.6363636 C9.09090909,23.3860086 8.88671864,23.1818182 8.63636364,23.1818182 Z M10.4545455,23.1818182 C10.2041905,23.1818182 10,23.3860086 10,23.6363636 C10,23.8867186 10.2041905,24.0909091 10.4545455,24.0909091 C10.7049005,24.0909091 10.9090909,23.8867186 10.9090909,23.6363636 C10.9090909,23.3860086 10.7049005,23.1818182 10.4545455,23.1818182 Z M12.2727273,23.1818182 C12.0223723,23.1818182 11.8181818,23.3860086 11.8181818,23.6363636 C11.8181818,23.8867186 12.0223723,24.0909091 12.2727273,24.0909091 C12.5230823,24.0909091 12.7272727,23.8867186 12.7272727,23.6363636 C12.7272727,23.3860086 12.5230823,23.1818182 12.2727273,23.1818182 Z M14.0909091,23.1818182 C13.8405541,23.1818182 13.6363636,23.3860086 13.6363636,23.6363636 C13.6363636,23.8867186 13.8405541,24.0909091 14.0909091,24.0909091 C14.3412641,24.0909091 14.5454545,23.8867186 14.5454545,23.6363636 C14.5454545,23.3860086 14.3412641,23.1818182 14.0909091,23.1818182 Z M15.9090909,23.1818182 C15.6587359,23.1818182 15.4545455,23.3860086 15.4545455,23.6363636 C15.4545455,23.8867186 15.6587359,24.0909091 15.9090909,24.0909091 C16.1594459,24.0909091 16.3636364,23.8867186 16.3636364,23.6363636 C16.3636364,23.3860086 16.1594459,23.1818182 15.9090909,23.1818182 Z M17.7272727,23.1818182 C17.4769177,23.1818182 17.2727273,23.3860086 17.2727273,23.6363636 C17.2727273,23.8867186 17.4769177,24.0909091 17.7272727,24.0909091 C17.9776277,24.0909091 18.1818182,23.8867186 18.1818182,23.6363636 C18.1818182,23.3860086 17.9776277,23.1818182 17.7272727,23.1818182 Z M19.5454545,23.1818182 C19.2950995,23.1818182 19.0909091,23.3860086 19.0909091,23.6363636 C19.0909091,23.8867186 19.2950995,24.0909091 19.5454545,24.0909091 C19.7958095,24.0909091 20,23.8867186 20,23.6363636 C20,23.3860086 19.7958095,23.1818182 19.5454545,23.1818182 Z M21.3636364,23.1818182 C21.1132814,23.1818182 20.9090909,23.3860086 20.9090909,23.6363636 C20.9090909,23.8867186 21.1132814,24.0909091 21.3636364,24.0909091 C21.6139914,24.0909091 21.8181818,23.8867186 21.8181818,23.6363636 C21.8181818,23.3860086 21.6139914,23.1818182 21.3636364,23.1818182 Z M23.1818182,23.1818182 C22.9314632,23.1818182 22.7272727,23.3860086 22.7272727,23.6363636 C22.7272727,23.8867186 22.9314632,24.0909091 23.1818182,24.0909091 C23.4321732,24.0909091 23.6363636,23.8867186 23.6363636,23.6363636 C23.6363636,23.3860086 23.4321732,23.1818182 23.1818182,23.1818182 Z M25,23.1818182 C24.749645,23.1818182 24.5454545,23.3860086 24.5454545,23.6363636 C24.5454545,23.8867186 24.749645,24.0909091 25,24.0909091 C25.250355,24.0909091 25.4545455,23.8867186 25.4545455,23.6363636 C25.4545455,23.3860086 25.250355,23.1818182 25,23.1818182 Z M26.8181818,23.1818182 C26.5678268,23.1818182 26.3636364,23.3860086 26.3636364,23.6363636 C26.3636364,23.8867186 26.5678268,24.0909091 26.8181818,24.0909091 C27.0685368,24.0909091 27.2727273,23.8867186 27.2727273,23.6363636 C27.2727273,23.3860086 27.0685368,23.1818182 26.8181818,23.1818182 Z" id="block-button" fill="#555D66" fill-rule="nonzero"></path>
    </g>
</svg>