<?xml version="1.0" encoding="UTF-8"?>
<svg width="30px" height="30px" viewBox="0 0 30 30" version="1.1" xmlns="http://www.w3.org/2000/svg" xmlns:xlink="http://www.w3.org/1999/xlink">
    <!-- Generator: Sketch 56 (81588) - https://sketch.com -->
    <title>block-donate</title>
    <desc>Created with Sketch.</desc>
    <g id="Page-1" stroke="none" stroke-width="1" fill="none" fill-rule="evenodd">
        <path d="M17.7240899,1.6870795e-05 C17.6370976,0.00182686294 17.5518806,0.0266816055 17.4808664,0.0746163039 C17.2394181,0.22729706 16.4511605,0.568165218 15.478266,0.937439056 C14.5035962,1.3049372 13.3141081,1.72569667 12.1405986,2.14290475 C10.967089,2.56011329 9.80778189,2.9702204 8.88814824,3.32174047 C8.42655594,3.49927596 8.02710118,3.65905814 7.70753728,3.80108654 C7.38797338,3.9413397 7.17137985,4.03720864 6.97786627,4.2005413 C6.66895427,4.46329384 6.35116607,4.91068329 5.92330518,5.53383301 C5.49721998,6.15520703 5.00544676,6.92216038 4.54030398,7.69266468 C4.07516075,8.46139327 3.63309747,9.23367281 3.30465691,9.86924967 C3.13954855,10.1870383 3.00462157,10.4710951 2.90342645,10.7107682 C2.80400657,10.9504412 2.72589095,11.1048967 2.72589095,11.365874 C2.72589095,11.5558371 2.76139805,11.6428294 2.80933275,11.8381187 C2.85549175,12.0334075 2.92473071,12.2819572 3.00994775,12.5748907 C3.18393277,13.1643085 3.43070677,13.9294866 3.72719117,14.765679 C4.27045002,16.2871581 4.97704108,18.0341074 5.74399444,19.3851524 C4.69475952,20.5089525 4.08936359,21.998475 4.08936359,23.6371277 C4.08936359,27.1345773 6.95478677,30 10.4522359,30 C13.9496854,30 16.8151081,27.1345773 16.8151081,23.6371277 C16.8151081,21.8120628 16.0446043,20.1521058 14.8125077,19.0034514 C14.8160587,19.0016757 14.8178339,18.9981252 14.8213844,18.99635 C15.2101872,18.6945394 16.4192039,18.3039613 17.8093069,17.7163187 C19.1976348,17.1304518 20.8078814,16.2924842 22.1464993,14.8579974 C23.4922181,13.4128582 24.0745346,11.415584 24.67638,9.59939571 C25.2800007,7.78320789 25.8978243,6.17651129 27.0695586,5.37937701 C27.2399926,5.26575429 27.3145578,5.05271169 27.2524202,4.85919811 C27.1885075,4.66390884 27.0038705,4.53608328 26.7997046,4.54496039 C26.7127123,4.54851088 26.6292705,4.57691656 26.5582563,4.6266265 C25.0580815,5.65100621 24.4225042,7.48139732 23.815333,9.31356367 C23.2063861,11.14573 22.6258449,13.009853 21.4807411,14.2366229 C20.2699492,15.5344075 18.7893029,16.317339 17.4542359,16.8801269 C16.1209442,17.4429143 14.9705142,17.7305216 14.2656984,18.2773309 C12.9537109,19.2484502 11.5174489,21.3646733 9.41010237,21.3646733 C8.65735186,21.3646733 8.17268006,21.153406 7.84246426,20.8338421 C7.51757418,20.5213796 7.33116202,20.0722149 7.27435066,19.5271808 C7.28500257,18.1832372 8.38217218,17.0399086 9.57165979,16.2303467 C10.7664736,15.4136834 11.9719397,14.9733954 11.9719397,14.9733954 C12.0571568,14.9432145 12.1299462,14.8864031 12.1849823,14.8136137 C12.1849823,14.8136137 12.8933491,13.831842 13.6975848,12.7790566 C14.1005905,12.2517763 14.5284509,11.704967 14.8995,11.2593527 C15.2723248,10.8137385 15.6149682,10.4497909 15.7285909,10.3627986 C15.8972497,10.2331978 15.9522859,10.0059523 15.8635179,9.81243831 C15.7765256,9.62069997 15.5652582,9.51417867 15.3593171,9.55678719 C15.3593171,9.55678719 14.6189941,9.71124318 13.7064614,9.70946794 C12.7957045,9.7076927 11.7571219,9.52305578 11.1748055,8.98867359 C11.0611827,8.88392799 10.9031763,8.84486995 10.7522707,8.88392799 C10.6031409,8.92298557 10.4841925,9.03483305 10.4362578,9.18041193 C10.4362578,9.18041193 9.81665901,11.0072526 8.08568778,11.3747507 C7.9631884,11.4013811 7.8566671,11.4777215 7.79097862,11.5842428 C7.7252906,11.6907641 7.70753728,11.8203649 7.74126868,11.9410891 C7.74126868,11.9410891 8.06438352,13.1128233 8.18155672,14.5828173 C8.1868829,14.6538315 8.20818716,14.7212952 8.24369426,14.781657 C8.24369426,14.781657 8.51532346,15.2539017 8.60941762,15.5823422 C8.62717094,15.646255 8.65912756,15.7066169 8.70173607,15.7563268 C7.70753728,16.4984254 6.74174417,17.4926242 6.45236119,18.7708798 C5.76707394,17.5228051 5.09598998,15.8948047 4.58468774,14.4620931 C4.29175428,13.6401037 4.050306,12.8873531 3.88342241,12.3192396 C3.79820537,12.0351828 3.73429259,11.7955102 3.69168407,11.6215252 C3.66150315,11.4990258 3.64552507,11.3871783 3.64019889,11.3569974 C3.64374937,11.3800769 3.66682933,11.2415994 3.74316925,11.060513 C3.82661105,10.8581227 3.95443661,10.5918193 4.11244309,10.2864582 C4.42668126,9.67928702 4.86164312,8.91943509 5.31790924,8.16313363 C5.77595105,7.40505694 6.26062285,6.64875594 6.67428045,6.04691049 C7.08616281,5.44684073 7.47851615,4.9692699 7.56373319,4.89648045 C7.56728412,4.89292997 7.7838772,4.76155348 8.07681112,4.63195267 C8.36974458,4.50057618 8.75854743,4.34434494 9.21126262,4.17213562 C10.1149186,3.82771698 11.2706744,3.41760986 12.4441844,3.00040133 C13.6176939,2.58319279 14.8107325,2.16065853 15.7996051,1.78605851 C16.7867025,1.41323419 17.5412282,1.11319886 17.9673134,0.841569659 C18.1430737,0.73504836 18.2229645,0.523781002 18.1661532,0.328492181 C18.1093418,0.131427664 17.9282558,-0.00172407428 17.7240899,1.6870795e-05 Z M11.0256756,9.97399572 C11.5263255,10.284683 12.0962148,10.4444647 12.657227,10.5314574 C12.6128428,10.6575073 12.6252704,10.7959852 12.6909584,10.9113832 C12.8170087,11.1279767 13.0957393,11.2025414 13.3123329,11.0764911 C13.4756655,10.9823974 13.564433,10.7977604 13.5342521,10.6113483 C13.5892882,10.6113483 13.6496501,10.6184497 13.7046862,10.6184497 C14.0384529,10.6202249 14.0402282,10.5882688 14.3100821,10.5634136 C14.2692493,10.6113483 14.2443941,10.6255511 14.2017856,10.6770363 C13.8609174,11.0871434 13.4827669,11.5735905 13.1170436,12.0476104 C13.1028408,12.0476104 13.0886379,12.0476104 13.0744351,12.0476104 C12.9980951,12.0493856 12.92353,12.0706899 12.857842,12.1079726 C12.6678789,12.2180444 12.5844371,12.4470651 12.657227,12.6530063 C12.2116128,13.2441998 11.8955994,13.670285 11.7180639,13.9117333 C11.7287162,13.8176392 11.7091872,13.7217702 11.6612525,13.6383284 C11.5778112,13.4945248 11.4233552,13.4075325 11.2564716,13.411083 C11.1801316,13.4128582 11.1055665,13.4341625 11.0398785,13.4714453 C10.9351324,13.5318071 10.858792,13.631227 10.8286111,13.7484007 C10.796655,13.8637986 10.812633,13.9880732 10.8729949,14.0928193 C10.94756,14.2188696 11.0753856,14.3023114 11.2191892,14.3165143 C10.8712196,14.4691946 10.2658237,14.7514761 9.44916041,15.2574522 C9.30890725,14.8349179 9.12071985,14.5011512 9.07278515,14.4194846 C8.95738719,13.1376785 8.75144601,12.3494209 8.68220706,12.0831175 C10.1681791,11.5611633 10.7753507,10.5385588 11.0256756,9.97399572 Z M11.2564716,10.2296468 C11.1801316,10.2314221 11.1055665,10.2527263 11.0398785,10.2900091 C10.9351324,10.350371 10.858792,10.4497909 10.8286111,10.5669645 C10.796655,10.6823625 10.812633,10.8066371 10.8729949,10.9113832 C10.9990452,11.1279767 11.2777758,11.2025414 11.4943694,11.0764911 C11.7109624,10.9522164 11.7873028,10.6734858 11.6612525,10.4568923 C11.5778112,10.3130886 11.4233552,10.2260964 11.2564716,10.2296468 Z M10.8019807,12.0476104 C10.7256408,12.0493856 10.6510756,12.0706899 10.5853876,12.1079726 C10.4806415,12.1683345 10.4043012,12.2677544 10.3741202,12.384928 C10.3421641,12.500326 10.3581422,12.6246006 10.418504,12.7293467 C10.5445543,12.9459402 10.8232849,13.0205049 11.0398785,12.8944546 C11.2564716,12.7701799 11.3328119,12.4914493 11.2067616,12.2748558 C11.1233203,12.1310521 10.9688643,12.0440599 10.8019807,12.0476104 Z M14.1396481,19.6159488 C15.2190639,20.5959447 15.9061264,22.037533 15.9061264,23.6371277 C15.9061264,26.6392531 13.4543613,29.0910182 10.4522359,29.0910182 C7.45011047,29.0910182 4.99834534,26.6392531 4.99834534,23.6371277 C4.99834534,22.2221699 5.50964758,20.9669938 6.39910031,20.0136283 C6.40797743,20.0118531 6.41862933,20.0100774 6.42750599,20.0083021 C6.51449873,20.4184092 6.67428045,20.8036612 6.91395349,21.1374279 C6.74884559,21.1374279 6.59794007,21.2226449 6.51627397,21.3646733 C6.39022365,21.5812669 6.46478879,21.8599975 6.68138187,21.9842721 C6.78612793,22.0464096 6.91040255,22.0623877 7.02580097,22.0304316 C7.14297417,22.0002506 7.24239405,21.9239103 7.30275634,21.8191642 C7.33826344,21.7588024 7.3595677,21.6895634 7.36311819,21.6203245 C7.87086994,22.0357577 8.5650334,22.2736551 9.41010237,22.2736551 C11.5831369,22.2736551 13.1063917,20.6385533 14.1396481,19.6159488 Z M13.9834168,21.1374279 C13.9070769,21.1392031 13.8325118,21.1587322 13.7668237,21.1977902 C13.5502302,21.3238401 13.4756655,21.6007954 13.5999401,21.8191642 C13.7259905,22.0357577 14.0047211,22.1103224 14.2213146,21.9842721 C14.4379077,21.8582222 14.5124728,21.5812669 14.3864225,21.3646733 C14.3047564,21.2190945 14.1503004,21.1321017 13.9834168,21.1374279 Z M6.36181797,23.1826368 C6.11149303,23.1826368 5.90732709,23.3868028 5.90732709,23.6371277 C5.90732709,23.8874527 6.11149303,24.0916186 6.36181797,24.0916186 C6.61214291,24.0916186 6.81630885,23.8874527 6.81630885,23.6371277 C6.81630885,23.3868028 6.61214291,23.1826368 6.36181797,23.1826368 Z M14.5426538,23.1826368 C14.2923288,23.1826368 14.0881629,23.3868028 14.0881629,23.6371277 C14.0881629,23.8874527 14.2923288,24.0916186 14.5426538,24.0916186 C14.7929787,24.0916186 14.9971446,23.8874527 14.9971446,23.6371277 C14.9971446,23.3868028 14.7929787,23.1826368 14.5426538,23.1826368 Z M6.89975065,25.2278458 C6.82341027,25.229621 6.74884559,25.24915 6.68138187,25.2882081 C6.46478879,25.4142579 6.39022365,25.6912133 6.51627397,25.9095821 C6.64232429,26.1261756 6.91927967,26.2007403 7.13587275,26.07469 C7.35424152,25.9486401 7.42880621,25.6716848 7.30453158,25.4550912 C7.22108979,25.3095123 7.06485855,25.2225196 6.89975065,25.2278458 Z M13.9727649,25.2278458 C13.8165337,25.2367225 13.6762805,25.3219395 13.5999401,25.4550912 C13.4738903,25.67346 13.5502302,25.9504154 13.7668237,26.0764657 C13.9834168,26.2025156 14.2621479,26.1279509 14.3864225,25.9095821 C14.4485601,25.8066117 14.4645381,25.6823367 14.432582,25.5651635 C14.4024006,25.4479898 14.3260607,25.3485699 14.2213146,25.2899833 C14.1449742,25.2455996 14.0597572,25.2242953 13.9727649,25.2278458 Z M12.4850172,26.7244702 C12.4104525,26.7262454 12.3358874,26.7475497 12.2701994,26.784832 C12.1654533,26.8451943 12.0891134,26.9446142 12.0571568,27.0617874 C12.0269759,27.1771858 12.0429539,27.3014604 12.1033162,27.4062065 C12.2293661,27.6227996 12.5063215,27.6973647 12.7246903,27.5713144 C12.9412838,27.4470398 13.0158485,27.1683087 12.8897982,26.9517156 C12.8081321,26.807912 12.6519008,26.7209192 12.4850172,26.7244702 Z M8.38572266,26.7262454 C8.23126666,26.7333468 8.09101396,26.8185639 8.01289834,26.9534908 C7.88684802,27.1700844 7.9614127,27.4470398 8.17978148,27.5730896 C8.2827523,27.6334519 8.40702692,27.64943 8.52420058,27.6192491 C8.64137378,27.5872925 8.74079366,27.5109525 8.79938026,27.4079817 C8.92543058,27.1896129 8.85086589,26.9126576 8.63427236,26.7866077 C8.55793198,26.7422235 8.4709397,26.7226949 8.38572266,26.7262454 Z M10.4522359,27.2730547 C10.2019109,27.2730547 9.99774499,27.4772207 9.99774499,27.7275456 C9.99774499,27.9778706 10.2019109,28.1820365 10.4522359,28.1820365 C10.7025608,28.1820365 10.9067267,27.9778706 10.9067267,27.7275456 C10.9067267,27.4772207 10.7025608,27.2730547 10.4522359,27.2730547 Z" id="block-donate" fill="#555D66" fill-rule="nonzero"></path>
    </g>
</svg>