<?xml version="1.0" encoding="UTF-8"?>
<svg width="30px" height="30px" viewBox="0 0 30 30" version="1.1" xmlns="http://www.w3.org/2000/svg" xmlns:xlink="http://www.w3.org/1999/xlink">
    <!-- Generator: Sketch 56 (81588) - https://sketch.com -->
    <title>block-text</title>
    <desc>Created with Sketch.</desc>
    <g id="Page-1" stroke="none" stroke-width="1" fill="none" fill-rule="evenodd">
        <path d="M2.67857143,0 L2.67857143,5.89285714 L4.78585393,5.89285714 L5.49944196,3.75 L11.7857143,3.75 L11.7857143,26.6622487 L8.57142857,28.0392021 L8.57142857,30 L21.4285714,30 L21.4285714,28.0392021 L18.2142857,26.6622487 L18.2142857,3.75 L24.500558,3.75 L25.2141461,5.89285714 L27.3214286,5.89285714 L27.3214286,0 L2.67857143,0 Z M3.75,1.07142857 L26.25,1.07142857 L26.25,4.82142857 L25.9884209,4.82142857 L25.2727398,2.67857143 L17.1428571,2.67857143 L17.1428571,27.3695593 L20.3571429,28.7465121 L20.3571429,28.9285714 L9.64285714,28.9285714 L9.64285714,28.7465121 L12.8571429,27.3695593 L12.8571429,2.67857143 L4.72726018,2.67857143 L4.01157911,4.82142857 L3.75,4.82142857 L3.75,1.07142857 Z M20.3571429,4.82142857 C20.0620816,4.82142857 19.8214286,5.06208161 19.8214286,5.35714286 C19.8214286,5.65220411 20.0620816,5.89285714 20.3571429,5.89285714 C20.6522041,5.89285714 20.8928571,5.65220411 20.8928571,5.35714286 C20.8928571,5.06208161 20.6522041,4.82142857 20.3571429,4.82142857 Z M20.3571429,6.96428571 C20.0620816,6.96428571 19.8214286,7.20493875 19.8214286,7.5 C19.8214286,7.79506125 20.0620816,8.03571429 20.3571429,8.03571429 C20.6522041,8.03571429 20.8928571,7.79506125 20.8928571,7.5 C20.8928571,7.20493875 20.6522041,6.96428571 20.3571429,6.96428571 Z M20.3571429,9.10714286 C20.0620816,9.10714286 19.8214286,9.34779589 19.8214286,9.64285714 C19.8214286,9.93791839 20.0620816,10.1785714 20.3571429,10.1785714 C20.6522041,10.1785714 20.8928571,9.93791839 20.8928571,9.64285714 C20.8928571,9.34779589 20.6522041,9.10714286 20.3571429,9.10714286 Z M20.3571429,11.25 C20.0620816,11.25 19.8214286,11.490653 19.8214286,11.7857143 C19.8214286,12.0807755 20.0620816,12.3214286 20.3571429,12.3214286 C20.6522041,12.3214286 20.8928571,12.0807755 20.8928571,11.7857143 C20.8928571,11.490653 20.6522041,11.25 20.3571429,11.25 Z M20.3571429,13.3928571 C20.0620816,13.3928571 19.8214286,13.6335102 19.8214286,13.9285714 C19.8214286,14.2236327 20.0620816,14.4642857 20.3571429,14.4642857 C20.6522041,14.4642857 20.8928571,14.2236327 20.8928571,13.9285714 C20.8928571,13.6335102 20.6522041,13.3928571 20.3571429,13.3928571 Z M20.3571429,15.5357143 C20.0620816,15.5357143 19.8214286,15.7763673 19.8214286,16.0714286 C19.8214286,16.3664898 20.0620816,16.6071429 20.3571429,16.6071429 C20.6522041,16.6071429 20.8928571,16.3664898 20.8928571,16.0714286 C20.8928571,15.7763673 20.6522041,15.5357143 20.3571429,15.5357143 Z M20.3571429,17.6785714 C20.0620816,17.6785714 19.8214286,17.9192245 19.8214286,18.2142857 C19.8214286,18.509347 20.0620816,18.75 20.3571429,18.75 C20.6522041,18.75 20.8928571,18.509347 20.8928571,18.2142857 C20.8928571,17.9192245 20.6522041,17.6785714 20.3571429,17.6785714 Z M20.3571429,19.8214286 C20.0620816,19.8214286 19.8214286,20.0620816 19.8214286,20.3571429 C19.8214286,20.6522041 20.0620816,20.8928571 20.3571429,20.8928571 C20.6522041,20.8928571 20.8928571,20.6522041 20.8928571,20.3571429 C20.8928571,20.0620816 20.6522041,19.8214286 20.3571429,19.8214286 Z M20.3571429,21.9642857 C20.0620816,21.9642857 19.8214286,22.2049388 19.8214286,22.5 C19.8214286,22.7950612 20.0620816,23.0357143 20.3571429,23.0357143 C20.6522041,23.0357143 20.8928571,22.7950612 20.8928571,22.5 C20.8928571,22.2049388 20.6522041,21.9642857 20.3571429,21.9642857 Z M20.3571429,24.1071429 C20.0620816,24.1071429 19.8214286,24.3477959 19.8214286,24.6428571 C19.8214286,24.9379184 20.0620816,25.1785714 20.3571429,25.1785714 C20.6522041,25.1785714 20.8928571,24.9379184 20.8928571,24.6428571 C20.8928571,24.3477959 20.6522041,24.1071429 20.3571429,24.1071429 Z" id="block-text" fill="#555D66" fill-rule="nonzero"></path>
    </g>
</svg>