<?xml version="1.0" encoding="UTF-8"?>
<svg width="30px" height="30px" viewBox="0 0 30 30" version="1.1" xmlns="http://www.w3.org/2000/svg" xmlns:xlink="http://www.w3.org/1999/xlink">
    <!-- Generator: Sketch 56 (81588) - https://sketch.com -->
    <title>block-list</title>
    <desc>Created with Sketch.</desc>
    <g id="Page-1" stroke="none" stroke-width="1" fill="none" fill-rule="evenodd">
        <path d="M2.20588235,3.97058824 C0.992647059,3.97058824 0,4.96323529 0,6.17647059 C0,7.38970588 0.992647059,8.38235294 2.20588235,8.38235294 C3.41911765,8.38235294 4.41176471,7.38970588 4.41176471,6.17647059 C4.41176471,4.96323529 3.41911765,3.97058824 2.20588235,3.97058824 Z M2.20588235,4.85294118 C2.94175103,4.85294118 3.52941176,5.44060191 3.52941176,6.17647059 C3.52941176,6.91233926 2.94175103,7.5 2.20588235,7.5 C1.47001368,7.5 0.882352941,6.91233926 0.882352941,6.17647059 C0.882352941,5.44060191 1.47001368,4.85294118 2.20588235,4.85294118 Z M7.94117647,4.85294118 L7.94117647,5.73529412 L30,5.73529412 L30,4.85294118 L7.94117647,4.85294118 Z M2.20588235,5.73529412 C1.96289074,5.73529412 1.76470588,5.93347897 1.76470588,6.17647059 C1.76470588,6.41946221 1.96289074,6.61764706 2.20588235,6.61764706 C2.44887397,6.61764706 2.64705882,6.41946221 2.64705882,6.17647059 C2.64705882,5.93347897 2.44887397,5.73529412 2.20588235,5.73529412 Z M8.38235294,6.61764706 C8.13936132,6.61764706 7.94117647,6.81583191 7.94117647,7.05882353 C7.94117647,7.30181515 8.13936132,7.5 8.38235294,7.5 C8.62534456,7.5 8.82352941,7.30181515 8.82352941,7.05882353 C8.82352941,6.81583191 8.62534456,6.61764706 8.38235294,6.61764706 Z M10.1470588,6.61764706 C9.90406721,6.61764706 9.70588235,6.81583191 9.70588235,7.05882353 C9.70588235,7.30181515 9.90406721,7.5 10.1470588,7.5 C10.3900504,7.5 10.5882353,7.30181515 10.5882353,7.05882353 C10.5882353,6.81583191 10.3900504,6.61764706 10.1470588,6.61764706 Z M11.9117647,6.61764706 C11.6687731,6.61764706 11.4705882,6.81583191 11.4705882,7.05882353 C11.4705882,7.30181515 11.6687731,7.5 11.9117647,7.5 C12.1547563,7.5 12.3529412,7.30181515 12.3529412,7.05882353 C12.3529412,6.81583191 12.1547563,6.61764706 11.9117647,6.61764706 Z M13.6764706,6.61764706 C13.433479,6.61764706 13.2352941,6.81583191 13.2352941,7.05882353 C13.2352941,7.30181515 13.433479,7.5 13.6764706,7.5 C13.9194622,7.5 14.1176471,7.30181515 14.1176471,7.05882353 C14.1176471,6.81583191 13.9194622,6.61764706 13.6764706,6.61764706 Z M15.4411765,6.61764706 C15.1981849,6.61764706 15,6.81583191 15,7.05882353 C15,7.30181515 15.1981849,7.5 15.4411765,7.5 C15.6841681,7.5 15.8823529,7.30181515 15.8823529,7.05882353 C15.8823529,6.81583191 15.6841681,6.61764706 15.4411765,6.61764706 Z M17.2058824,6.61764706 C16.9628907,6.61764706 16.7647059,6.81583191 16.7647059,7.05882353 C16.7647059,7.30181515 16.9628907,7.5 17.2058824,7.5 C17.448874,7.5 17.6470588,7.30181515 17.6470588,7.05882353 C17.6470588,6.81583191 17.448874,6.61764706 17.2058824,6.61764706 Z M18.9705882,6.61764706 C18.7275966,6.61764706 18.5294118,6.81583191 18.5294118,7.05882353 C18.5294118,7.30181515 18.7275966,7.5 18.9705882,7.5 C19.2135799,7.5 19.4117647,7.30181515 19.4117647,7.05882353 C19.4117647,6.81583191 19.2135799,6.61764706 18.9705882,6.61764706 Z M20.7352941,6.61764706 C20.4923025,6.61764706 20.2941176,6.81583191 20.2941176,7.05882353 C20.2941176,7.30181515 20.4923025,7.5 20.7352941,7.5 C20.9782857,7.5 21.1764706,7.30181515 21.1764706,7.05882353 C21.1764706,6.81583191 20.9782857,6.61764706 20.7352941,6.61764706 Z M22.5,6.61764706 C22.2570084,6.61764706 22.0588235,6.81583191 22.0588235,7.05882353 C22.0588235,7.30181515 22.2570084,7.5 22.5,7.5 C22.7429916,7.5 22.9411765,7.30181515 22.9411765,7.05882353 C22.9411765,6.81583191 22.7429916,6.61764706 22.5,6.61764706 Z M24.2647059,6.61764706 C24.0217143,6.61764706 23.8235294,6.81583191 23.8235294,7.05882353 C23.8235294,7.30181515 24.0217143,7.5 24.2647059,7.5 C24.5076975,7.5 24.7058824,7.30181515 24.7058824,7.05882353 C24.7058824,6.81583191 24.5076975,6.61764706 24.2647059,6.61764706 Z M26.0294118,6.61764706 C25.7864201,6.61764706 25.5882353,6.81583191 25.5882353,7.05882353 C25.5882353,7.30181515 25.7864201,7.5 26.0294118,7.5 C26.2724034,7.5 26.4705882,7.30181515 26.4705882,7.05882353 C26.4705882,6.81583191 26.2724034,6.61764706 26.0294118,6.61764706 Z M27.7941176,6.61764706 C27.551126,6.61764706 27.3529412,6.81583191 27.3529412,7.05882353 C27.3529412,7.30181515 27.551126,7.5 27.7941176,7.5 C28.0371093,7.5 28.2352941,7.30181515 28.2352941,7.05882353 C28.2352941,6.81583191 28.0371093,6.61764706 27.7941176,6.61764706 Z M29.5588235,6.61764706 C29.3158319,6.61764706 29.1176471,6.81583191 29.1176471,7.05882353 C29.1176471,7.30181515 29.3158319,7.5 29.5588235,7.5 C29.8018151,7.5 30,7.30181515 30,7.05882353 C30,6.81583191 29.8018151,6.61764706 29.5588235,6.61764706 Z M2.20588235,12.7941176 C0.992647059,12.7941176 0,13.7867647 0,15 C0,16.2132353 0.992647059,17.2058824 2.20588235,17.2058824 C3.41911765,17.2058824 4.41176471,16.2132353 4.41176471,15 C4.41176471,13.7867647 3.41911765,12.7941176 2.20588235,12.7941176 Z M2.20588235,13.6764706 C2.94175103,13.6764706 3.52941176,14.2641313 3.52941176,15 C3.52941176,15.7358687 2.94175103,16.3235294 2.20588235,16.3235294 C1.47001368,16.3235294 0.882352941,15.7358687 0.882352941,15 C0.882352941,14.2641313 1.47001368,13.6764706 2.20588235,13.6764706 Z M7.94117647,13.6764706 L7.94117647,14.5588235 L30,14.5588235 L30,13.6764706 L7.94117647,13.6764706 Z M2.20588235,14.5588235 C1.96289074,14.5588235 1.76470588,14.7570084 1.76470588,15 C1.76470588,15.2429916 1.96289074,15.4411765 2.20588235,15.4411765 C2.44887397,15.4411765 2.64705882,15.2429916 2.64705882,15 C2.64705882,14.7570084 2.44887397,14.5588235 2.20588235,14.5588235 Z M8.38235294,15.4411765 C8.13936132,15.4411765 7.94117647,15.6393613 7.94117647,15.8823529 C7.94117647,16.1253446 8.13936132,16.3235294 8.38235294,16.3235294 C8.62534456,16.3235294 8.82352941,16.1253446 8.82352941,15.8823529 C8.82352941,15.6393613 8.62534456,15.4411765 8.38235294,15.4411765 Z M10.1470588,15.4411765 C9.90406721,15.4411765 9.70588235,15.6393613 9.70588235,15.8823529 C9.70588235,16.1253446 9.90406721,16.3235294 10.1470588,16.3235294 C10.3900504,16.3235294 10.5882353,16.1253446 10.5882353,15.8823529 C10.5882353,15.6393613 10.3900504,15.4411765 10.1470588,15.4411765 Z M11.9117647,15.4411765 C11.6687731,15.4411765 11.4705882,15.6393613 11.4705882,15.8823529 C11.4705882,16.1253446 11.6687731,16.3235294 11.9117647,16.3235294 C12.1547563,16.3235294 12.3529412,16.1253446 12.3529412,15.8823529 C12.3529412,15.6393613 12.1547563,15.4411765 11.9117647,15.4411765 Z M13.6764706,15.4411765 C13.433479,15.4411765 13.2352941,15.6393613 13.2352941,15.8823529 C13.2352941,16.1253446 13.433479,16.3235294 13.6764706,16.3235294 C13.9194622,16.3235294 14.1176471,16.1253446 14.1176471,15.8823529 C14.1176471,15.6393613 13.9194622,15.4411765 13.6764706,15.4411765 Z M15.4411765,15.4411765 C15.1981849,15.4411765 15,15.6393613 15,15.8823529 C15,16.1253446 15.1981849,16.3235294 15.4411765,16.3235294 C15.6841681,16.3235294 15.8823529,16.1253446 15.8823529,15.8823529 C15.8823529,15.6393613 15.6841681,15.4411765 15.4411765,15.4411765 Z M17.2058824,15.4411765 C16.9628907,15.4411765 16.7647059,15.6393613 16.7647059,15.8823529 C16.7647059,16.1253446 16.9628907,16.3235294 17.2058824,16.3235294 C17.448874,16.3235294 17.6470588,16.1253446 17.6470588,15.8823529 C17.6470588,15.6393613 17.448874,15.4411765 17.2058824,15.4411765 Z M18.9705882,15.4411765 C18.7275966,15.4411765 18.5294118,15.6393613 18.5294118,15.8823529 C18.5294118,16.1253446 18.7275966,16.3235294 18.9705882,16.3235294 C19.2135799,16.3235294 19.4117647,16.1253446 19.4117647,15.8823529 C19.4117647,15.6393613 19.2135799,15.4411765 18.9705882,15.4411765 Z M20.7352941,15.4411765 C20.4923025,15.4411765 20.2941176,15.6393613 20.2941176,15.8823529 C20.2941176,16.1253446 20.4923025,16.3235294 20.7352941,16.3235294 C20.9782857,16.3235294 21.1764706,16.1253446 21.1764706,15.8823529 C21.1764706,15.6393613 20.9782857,15.4411765 20.7352941,15.4411765 Z M22.5,15.4411765 C22.2570084,15.4411765 22.0588235,15.6393613 22.0588235,15.8823529 C22.0588235,16.1253446 22.2570084,16.3235294 22.5,16.3235294 C22.7429916,16.3235294 22.9411765,16.1253446 22.9411765,15.8823529 C22.9411765,15.6393613 22.7429916,15.4411765 22.5,15.4411765 Z M24.2647059,15.4411765 C24.0217143,15.4411765 23.8235294,15.6393613 23.8235294,15.8823529 C23.8235294,16.1253446 24.0217143,16.3235294 24.2647059,16.3235294 C24.5076975,16.3235294 24.7058824,16.1253446 24.7058824,15.8823529 C24.7058824,15.6393613 24.5076975,15.4411765 24.2647059,15.4411765 Z M26.0294118,15.4411765 C25.7864201,15.4411765 25.5882353,15.6393613 25.5882353,15.8823529 C25.5882353,16.1253446 25.7864201,16.3235294 26.0294118,16.3235294 C26.2724034,16.3235294 26.4705882,16.1253446 26.4705882,15.8823529 C26.4705882,15.6393613 26.2724034,15.4411765 26.0294118,15.4411765 Z M27.7941176,15.4411765 C27.551126,15.4411765 27.3529412,15.6393613 27.3529412,15.8823529 C27.3529412,16.1253446 27.551126,16.3235294 27.7941176,16.3235294 C28.0371093,16.3235294 28.2352941,16.1253446 28.2352941,15.8823529 C28.2352941,15.6393613 28.0371093,15.4411765 27.7941176,15.4411765 Z M29.5588235,15.4411765 C29.3158319,15.4411765 29.1176471,15.6393613 29.1176471,15.8823529 C29.1176471,16.1253446 29.3158319,16.3235294 29.5588235,16.3235294 C29.8018151,16.3235294 30,16.1253446 30,15.8823529 C30,15.6393613 29.8018151,15.4411765 29.5588235,15.4411765 Z M2.20588235,21.6176471 C0.992647059,21.6176471 0,22.6102941 0,23.8235294 C0,25.0367647 0.992647059,26.0294118 2.20588235,26.0294118 C3.41911765,26.0294118 4.41176471,25.0367647 4.41176471,23.8235294 C4.41176471,22.6102941 3.41911765,21.6176471 2.20588235,21.6176471 Z M2.20588235,22.5 C2.94175103,22.5 3.52941176,23.0876607 3.52941176,23.8235294 C3.52941176,24.5593981 2.94175103,25.1470588 2.20588235,25.1470588 C1.47001368,25.1470588 0.882352941,24.5593981 0.882352941,23.8235294 C0.882352941,23.0876607 1.47001368,22.5 2.20588235,22.5 Z M7.94117647,22.5 L7.94117647,23.3823529 L30,23.3823529 L30,22.5 L7.94117647,22.5 Z M2.20588235,23.3823529 C1.96289074,23.3823529 1.76470588,23.5805378 1.76470588,23.8235294 C1.76470588,24.066521 1.96289074,24.2647059 2.20588235,24.2647059 C2.44887397,24.2647059 2.64705882,24.066521 2.64705882,23.8235294 C2.64705882,23.5805378 2.44887397,23.3823529 2.20588235,23.3823529 Z M8.38235294,24.2647059 C8.13936132,24.2647059 7.94117647,24.4628907 7.94117647,24.7058824 C7.94117647,24.948874 8.13936132,25.1470588 8.38235294,25.1470588 C8.62534456,25.1470588 8.82352941,24.948874 8.82352941,24.7058824 C8.82352941,24.4628907 8.62534456,24.2647059 8.38235294,24.2647059 Z M10.1470588,24.2647059 C9.90406721,24.2647059 9.70588235,24.4628907 9.70588235,24.7058824 C9.70588235,24.948874 9.90406721,25.1470588 10.1470588,25.1470588 C10.3900504,25.1470588 10.5882353,24.948874 10.5882353,24.7058824 C10.5882353,24.4628907 10.3900504,24.2647059 10.1470588,24.2647059 Z M11.9117647,24.2647059 C11.6687731,24.2647059 11.4705882,24.4628907 11.4705882,24.7058824 C11.4705882,24.948874 11.6687731,25.1470588 11.9117647,25.1470588 C12.1547563,25.1470588 12.3529412,24.948874 12.3529412,24.7058824 C12.3529412,24.4628907 12.1547563,24.2647059 11.9117647,24.2647059 Z M13.6764706,24.2647059 C13.433479,24.2647059 13.2352941,24.4628907 13.2352941,24.7058824 C13.2352941,24.948874 13.433479,25.1470588 13.6764706,25.1470588 C13.9194622,25.1470588 14.1176471,24.948874 14.1176471,24.7058824 C14.1176471,24.4628907 13.9194622,24.2647059 13.6764706,24.2647059 Z M15.4411765,24.2647059 C15.1981849,24.2647059 15,24.4628907 15,24.7058824 C15,24.948874 15.1981849,25.1470588 15.4411765,25.1470588 C15.6841681,25.1470588 15.8823529,24.948874 15.8823529,24.7058824 C15.8823529,24.4628907 15.6841681,24.2647059 15.4411765,24.2647059 Z M17.2058824,24.2647059 C16.9628907,24.2647059 16.7647059,24.4628907 16.7647059,24.7058824 C16.7647059,24.948874 16.9628907,25.1470588 17.2058824,25.1470588 C17.448874,25.1470588 17.6470588,24.948874 17.6470588,24.7058824 C17.6470588,24.4628907 17.448874,24.2647059 17.2058824,24.2647059 Z M18.9705882,24.2647059 C18.7275966,24.2647059 18.5294118,24.4628907 18.5294118,24.7058824 C18.5294118,24.948874 18.7275966,25.1470588 18.9705882,25.1470588 C19.2135799,25.1470588 19.4117647,24.948874 19.4117647,24.7058824 C19.4117647,24.4628907 19.2135799,24.2647059 18.9705882,24.2647059 Z M20.7352941,24.2647059 C20.4923025,24.2647059 20.2941176,24.4628907 20.2941176,24.7058824 C20.2941176,24.948874 20.4923025,25.1470588 20.7352941,25.1470588 C20.9782857,25.1470588 21.1764706,24.948874 21.1764706,24.7058824 C21.1764706,24.4628907 20.9782857,24.2647059 20.7352941,24.2647059 Z M22.5,24.2647059 C22.2570084,24.2647059 22.0588235,24.4628907 22.0588235,24.7058824 C22.0588235,24.948874 22.2570084,25.1470588 22.5,25.1470588 C22.7429916,25.1470588 22.9411765,24.948874 22.9411765,24.7058824 C22.9411765,24.4628907 22.7429916,24.2647059 22.5,24.2647059 Z M24.2647059,24.2647059 C24.0217143,24.2647059 23.8235294,24.4628907 23.8235294,24.7058824 C23.8235294,24.948874 24.0217143,25.1470588 24.2647059,25.1470588 C24.5076975,25.1470588 24.7058824,24.948874 24.7058824,24.7058824 C24.7058824,24.4628907 24.5076975,24.2647059 24.2647059,24.2647059 Z M26.0294118,24.2647059 C25.7864201,24.2647059 25.5882353,24.4628907 25.5882353,24.7058824 C25.5882353,24.948874 25.7864201,25.1470588 26.0294118,25.1470588 C26.2724034,25.1470588 26.4705882,24.948874 26.4705882,24.7058824 C26.4705882,24.4628907 26.2724034,24.2647059 26.0294118,24.2647059 Z M27.7941176,24.2647059 C27.551126,24.2647059 27.3529412,24.4628907 27.3529412,24.7058824 C27.3529412,24.948874 27.551126,25.1470588 27.7941176,25.1470588 C28.0371093,25.1470588 28.2352941,24.948874 28.2352941,24.7058824 C28.2352941,24.4628907 28.0371093,24.2647059 27.7941176,24.2647059 Z M29.5588235,24.2647059 C29.3158319,24.2647059 29.1176471,24.4628907 29.1176471,24.7058824 C29.1176471,24.948874 29.3158319,25.1470588 29.5588235,25.1470588 C29.8018151,25.1470588 30,24.948874 30,24.7058824 C30,24.4628907 29.8018151,24.2647059 29.5588235,24.2647059 Z" id="block-list" fill="#555D66" fill-rule="nonzero"></path>
    </g>
</svg>