<?xml version="1.0" encoding="UTF-8"?>
<svg width="30px" height="30px" viewBox="0 0 30 30" version="1.1" xmlns="http://www.w3.org/2000/svg" xmlns:xlink="http://www.w3.org/1999/xlink">
    <!-- Generator: Sketch 56 (81588) - https://sketch.com -->
    <title>block-contact</title>
    <desc>Created with Sketch.</desc>
    <g id="Page-1" stroke="none" stroke-width="1" fill="none" fill-rule="evenodd">
        <path d="M0,3.42857143 L0,26.5714286 L30,26.5714286 L30,3.42857143 L0,3.42857143 Z M0.857142857,4.28571429 L29.1428571,4.28571429 L29.1428571,6.46875 L16.2254464,15.4720984 C15.4888393,15.986049 14.5128347,15.986049 13.7745536,15.4720984 L0.857142857,6.46875 L0.857142857,4.28571429 Z M0.857142857,7.51339286 L13.2857143,16.1752234 C14.3136163,16.8934153 15.6863841,16.8917413 16.7142857,16.1752234 L29.1428571,7.51339286 L29.1428571,25.7142857 L0.857142857,25.7142857 L0.857142857,7.51339286 Z M3,9.42857143 C2.763951,9.42857143 2.57142857,9.62109386 2.57142857,9.85714286 C2.57142857,10.0931919 2.763951,10.2857143 3,10.2857143 C3.236049,10.2857143 3.42857143,10.0931919 3.42857143,9.85714286 C3.42857143,9.62109386 3.236049,9.42857143 3,9.42857143 Z M27,9.42857143 C26.763951,9.42857143 26.5714286,9.62109386 26.5714286,9.85714286 C26.5714286,10.0931919 26.763951,10.2857143 27,10.2857143 C27.236049,10.2857143 27.4285714,10.0931919 27.4285714,9.85714286 C27.4285714,9.62109386 27.236049,9.42857143 27,9.42857143 Z M3,11.1428571 C2.763951,11.1428571 2.57142857,11.3353796 2.57142857,11.5714286 C2.57142857,11.8074776 2.763951,12 3,12 C3.236049,12 3.42857143,11.8074776 3.42857143,11.5714286 C3.42857143,11.3353796 3.236049,11.1428571 3,11.1428571 Z M27,11.1428571 C26.763951,11.1428571 26.5714286,11.3353796 26.5714286,11.5714286 C26.5714286,11.8074776 26.763951,12 27,12 C27.236049,12 27.4285714,11.8074776 27.4285714,11.5714286 C27.4285714,11.3353796 27.236049,11.1428571 27,11.1428571 Z M3,12.8571429 C2.763951,12.8571429 2.57142857,13.0496653 2.57142857,13.2857143 C2.57142857,13.5217633 2.763951,13.7142857 3,13.7142857 C3.236049,13.7142857 3.42857143,13.5217633 3.42857143,13.2857143 C3.42857143,13.0496653 3.236049,12.8571429 3,12.8571429 Z M27,12.8571429 C26.763951,12.8571429 26.5714286,13.0496653 26.5714286,13.2857143 C26.5714286,13.5217633 26.763951,13.7142857 27,13.7142857 C27.236049,13.7142857 27.4285714,13.5217633 27.4285714,13.2857143 C27.4285714,13.0496653 27.236049,12.8571429 27,12.8571429 Z M3,14.5714286 C2.763951,14.5714286 2.57142857,14.763951 2.57142857,15 C2.57142857,15.236049 2.763951,15.4285714 3,15.4285714 C3.236049,15.4285714 3.42857143,15.236049 3.42857143,15 C3.42857143,14.763951 3.236049,14.5714286 3,14.5714286 Z M27,14.5714286 C26.763951,14.5714286 26.5714286,14.763951 26.5714286,15 C26.5714286,15.236049 26.763951,15.4285714 27,15.4285714 C27.236049,15.4285714 27.4285714,15.236049 27.4285714,15 C27.4285714,14.763951 27.236049,14.5714286 27,14.5714286 Z M3,16.2857143 C2.763951,16.2857143 2.57142857,16.4782367 2.57142857,16.7142857 C2.57142857,16.9503347 2.763951,17.1428571 3,17.1428571 C3.236049,17.1428571 3.42857143,16.9503347 3.42857143,16.7142857 C3.42857143,16.4782367 3.236049,16.2857143 3,16.2857143 Z M27,16.2857143 C26.763951,16.2857143 26.5714286,16.4782367 26.5714286,16.7142857 C26.5714286,16.9503347 26.763951,17.1428571 27,17.1428571 C27.236049,17.1428571 27.4285714,16.9503347 27.4285714,16.7142857 C27.4285714,16.4782367 27.236049,16.2857143 27,16.2857143 Z M3,18 C2.763951,18 2.57142857,18.1925224 2.57142857,18.4285714 C2.57142857,18.6646204 2.763951,18.8571429 3,18.8571429 C3.236049,18.8571429 3.42857143,18.6646204 3.42857143,18.4285714 C3.42857143,18.1925224 3.236049,18 3,18 Z M27,18 C26.763951,18 26.5714286,18.1925224 26.5714286,18.4285714 C26.5714286,18.6646204 26.763951,18.8571429 27,18.8571429 C27.236049,18.8571429 27.4285714,18.6646204 27.4285714,18.4285714 C27.4285714,18.1925224 27.236049,18 27,18 Z M3,19.7142857 C2.763951,19.7142857 2.57142857,19.9068081 2.57142857,20.1428571 C2.57142857,20.3789061 2.763951,20.5714286 3,20.5714286 C3.236049,20.5714286 3.42857143,20.3789061 3.42857143,20.1428571 C3.42857143,19.9068081 3.236049,19.7142857 3,19.7142857 Z M27,19.7142857 C26.763951,19.7142857 26.5714286,19.9068081 26.5714286,20.1428571 C26.5714286,20.3789061 26.763951,20.5714286 27,20.5714286 C27.236049,20.5714286 27.4285714,20.3789061 27.4285714,20.1428571 C27.4285714,19.9068081 27.236049,19.7142857 27,19.7142857 Z M3,21.4285714 C2.763951,21.4285714 2.57142857,21.6210939 2.57142857,21.8571429 C2.57142857,22.0931919 2.763951,22.2857143 3,22.2857143 C3.236049,22.2857143 3.42857143,22.0931919 3.42857143,21.8571429 C3.42857143,21.6210939 3.236049,21.4285714 3,21.4285714 Z M27,21.4285714 C26.763951,21.4285714 26.5714286,21.6210939 26.5714286,21.8571429 C26.5714286,22.0931919 26.763951,22.2857143 27,22.2857143 C27.236049,22.2857143 27.4285714,22.0931919 27.4285714,21.8571429 C27.4285714,21.6210939 27.236049,21.4285714 27,21.4285714 Z M3,23.1428571 C2.763951,23.1428571 2.57142857,23.3353796 2.57142857,23.5714286 C2.57142857,23.8074776 2.763951,24 3,24 C3.236049,24 3.42857143,23.8074776 3.42857143,23.5714286 C3.42857143,23.3353796 3.236049,23.1428571 3,23.1428571 Z M4.71428571,23.1428571 C4.47823671,23.1428571 4.28571429,23.3353796 4.28571429,23.5714286 C4.28571429,23.8074776 4.47823671,24 4.71428571,24 C4.95033471,24 5.14285714,23.8074776 5.14285714,23.5714286 C5.14285714,23.3353796 4.95033471,23.1428571 4.71428571,23.1428571 Z M6.42857143,23.1428571 C6.19252243,23.1428571 6,23.3353796 6,23.5714286 C6,23.8074776 6.19252243,24 6.42857143,24 C6.66462043,24 6.85714286,23.8074776 6.85714286,23.5714286 C6.85714286,23.3353796 6.66462043,23.1428571 6.42857143,23.1428571 Z M8.14285714,23.1428571 C7.90680814,23.1428571 7.71428571,23.3353796 7.71428571,23.5714286 C7.71428571,23.8074776 7.90680814,24 8.14285714,24 C8.37890614,24 8.57142857,23.8074776 8.57142857,23.5714286 C8.57142857,23.3353796 8.37890614,23.1428571 8.14285714,23.1428571 Z M9.85714286,23.1428571 C9.62109386,23.1428571 9.42857143,23.3353796 9.42857143,23.5714286 C9.42857143,23.8074776 9.62109386,24 9.85714286,24 C10.0931919,24 10.2857143,23.8074776 10.2857143,23.5714286 C10.2857143,23.3353796 10.0931919,23.1428571 9.85714286,23.1428571 Z M11.5714286,23.1428571 C11.3353796,23.1428571 11.1428571,23.3353796 11.1428571,23.5714286 C11.1428571,23.8074776 11.3353796,24 11.5714286,24 C11.8074776,24 12,23.8074776 12,23.5714286 C12,23.3353796 11.8074776,23.1428571 11.5714286,23.1428571 Z M13.2857143,23.1428571 C13.0496653,23.1428571 12.8571429,23.3353796 12.8571429,23.5714286 C12.8571429,23.8074776 13.0496653,24 13.2857143,24 C13.5217633,24 13.7142857,23.8074776 13.7142857,23.5714286 C13.7142857,23.3353796 13.5217633,23.1428571 13.2857143,23.1428571 Z M15,23.1428571 C14.763951,23.1428571 14.5714286,23.3353796 14.5714286,23.5714286 C14.5714286,23.8074776 14.763951,24 15,24 C15.236049,24 15.4285714,23.8074776 15.4285714,23.5714286 C15.4285714,23.3353796 15.236049,23.1428571 15,23.1428571 Z M16.7142857,23.1428571 C16.4782367,23.1428571 16.2857143,23.3353796 16.2857143,23.5714286 C16.2857143,23.8074776 16.4782367,24 16.7142857,24 C16.9503347,24 17.1428571,23.8074776 17.1428571,23.5714286 C17.1428571,23.3353796 16.9503347,23.1428571 16.7142857,23.1428571 Z M18.4285714,23.1428571 C18.1925224,23.1428571 18,23.3353796 18,23.5714286 C18,23.8074776 18.1925224,24 18.4285714,24 C18.6646204,24 18.8571429,23.8074776 18.8571429,23.5714286 C18.8571429,23.3353796 18.6646204,23.1428571 18.4285714,23.1428571 Z M20.1428571,23.1428571 C19.9068081,23.1428571 19.7142857,23.3353796 19.7142857,23.5714286 C19.7142857,23.8074776 19.9068081,24 20.1428571,24 C20.3789061,24 20.5714286,23.8074776 20.5714286,23.5714286 C20.5714286,23.3353796 20.3789061,23.1428571 20.1428571,23.1428571 Z M21.8571429,23.1428571 C21.6210939,23.1428571 21.4285714,23.3353796 21.4285714,23.5714286 C21.4285714,23.8074776 21.6210939,24 21.8571429,24 C22.0931919,24 22.2857143,23.8074776 22.2857143,23.5714286 C22.2857143,23.3353796 22.0931919,23.1428571 21.8571429,23.1428571 Z M23.5714286,23.1428571 C23.3353796,23.1428571 23.1428571,23.3353796 23.1428571,23.5714286 C23.1428571,23.8074776 23.3353796,24 23.5714286,24 C23.8074776,24 24,23.8074776 24,23.5714286 C24,23.3353796 23.8074776,23.1428571 23.5714286,23.1428571 Z M25.2857143,23.1428571 C25.0496653,23.1428571 24.8571429,23.3353796 24.8571429,23.5714286 C24.8571429,23.8074776 25.0496653,24 25.2857143,24 C25.5217633,24 25.7142857,23.8074776 25.7142857,23.5714286 C25.7142857,23.3353796 25.5217633,23.1428571 25.2857143,23.1428571 Z M27,23.1428571 C26.763951,23.1428571 26.5714286,23.3353796 26.5714286,23.5714286 C26.5714286,23.8074776 26.763951,24 27,24 C27.236049,24 27.4285714,23.8074776 27.4285714,23.5714286 C27.4285714,23.3353796 27.236049,23.1428571 27,23.1428571 Z" id="block-contact" fill="#555D66" fill-rule="nonzero"></path>
    </g>
</svg>